<svg width="233" height="27" viewBox="0 0 233 27" fill="none" xmlns="http://www.w3.org/2000/svg">
<path d="M13.3149 26.324C12.5469 26.324 11.9109 26.156 11.4069 25.82C10.9269 25.46 10.5309 24.92 10.2189 24.2L1.14694 4.04C0.810938 3.32 0.714938 2.684 0.858938 2.132C1.00294 1.556 1.30294 1.112 1.75894 0.799998C2.21494 0.463998 2.76694 0.295998 3.41494 0.295998C4.23094 0.295998 4.85494 0.487999 5.28694 0.872C5.71894 1.232 6.07894 1.772 6.36694 2.492L14.3229 20.888H12.5229L20.4789 2.456C20.7909 1.736 21.1629 1.196 21.5949 0.835998C22.0269 0.475998 22.6269 0.295998 23.3949 0.295998C24.0429 0.295998 24.5709 0.463998 24.9789 0.799998C25.4109 1.112 25.6749 1.556 25.7709 2.132C25.8909 2.684 25.7949 3.32 25.4829 4.04L16.4109 24.2C16.0749 24.92 15.6669 25.46 15.1869 25.82C14.7309 26.156 14.1069 26.324 13.3149 26.324ZM31.7312 26.324C30.8192 26.324 30.1232 26.072 29.6432 25.568C29.1632 25.064 28.9232 24.356 28.9232 23.444V3.14C28.9232 2.228 29.1632 1.532 29.6432 1.052C30.1232 0.547999 30.8192 0.295998 31.7312 0.295998C32.6192 0.295998 33.3032 0.547999 33.7832 1.052C34.2632 1.532 34.5032 2.228 34.5032 3.14V11.672H34.5752L44.1512 1.664C44.5592 1.232 44.9792 0.908 45.4112 0.692C45.8672 0.451998 46.3832 0.331998 46.9592 0.331998C47.7992 0.331998 48.3992 0.547998 48.7592 0.979998C49.1432 1.412 49.3112 1.916 49.2632 2.492C49.2152 3.068 48.9512 3.608 48.4712 4.112L38.8592 13.94L38.8952 11.528L48.9752 22.292C49.5272 22.892 49.8032 23.504 49.8032 24.128C49.8272 24.752 49.6232 25.28 49.1912 25.712C48.7832 26.12 48.1712 26.324 47.3552 26.324C46.6592 26.324 46.0952 26.18 45.6632 25.892C45.2552 25.604 44.7992 25.184 44.2952 24.632L34.5752 14.408H34.5032V23.444C34.5032 24.356 34.2632 25.064 33.7832 25.568C33.3272 26.072 32.6432 26.324 31.7312 26.324Z" fill="#C01048"/>
<path d="M62.6723 26.36C61.6163 26.36 60.5603 26.276 59.5043 26.108C58.4483 25.964 57.4523 25.736 56.5163 25.424C55.5803 25.088 54.7403 24.68 53.9963 24.2C53.5643 23.912 53.2643 23.564 53.0963 23.156C52.9283 22.748 52.8683 22.352 52.9163 21.968C52.9883 21.56 53.1443 21.212 53.3843 20.924C53.6483 20.612 53.9723 20.42 54.3563 20.348C54.7403 20.276 55.1603 20.384 55.6163 20.672C56.6723 21.296 57.7883 21.752 58.9643 22.04C60.1403 22.328 61.3763 22.472 62.6723 22.472C64.5683 22.472 65.9483 22.16 66.8123 21.536C67.6763 20.888 68.1083 20.06 68.1083 19.052C68.1083 18.212 67.7963 17.552 67.1723 17.072C66.5723 16.592 65.5283 16.196 64.0403 15.884L60.0803 15.056C57.8003 14.576 56.0963 13.772 54.9683 12.644C53.8643 11.492 53.3123 9.98 53.3123 8.108C53.3123 6.932 53.5523 5.864 54.0323 4.904C54.5123 3.944 55.1843 3.116 56.0483 2.42C56.9363 1.724 57.9803 1.196 59.1803 0.835998C60.4043 0.451998 61.7483 0.259999 63.2123 0.259999C64.6523 0.259999 66.0203 0.439999 67.3163 0.799998C68.6123 1.16 69.7763 1.688 70.8083 2.384C71.1923 2.648 71.4443 2.972 71.5643 3.356C71.7083 3.74 71.7443 4.124 71.6723 4.508C71.6003 4.868 71.4323 5.18 71.1683 5.444C70.9043 5.708 70.5683 5.864 70.1603 5.912C69.7763 5.96 69.3323 5.84 68.8283 5.552C67.9403 5.048 67.0403 4.688 66.1283 4.472C65.2163 4.256 64.2323 4.148 63.1763 4.148C62.0723 4.148 61.1243 4.304 60.3323 4.616C59.5403 4.928 58.9283 5.372 58.4963 5.948C58.0883 6.5 57.8843 7.16 57.8843 7.928C57.8843 8.792 58.1723 9.488 58.7483 10.016C59.3243 10.52 60.3083 10.916 61.7003 11.204L65.6243 12.032C68.0003 12.536 69.7643 13.328 70.9163 14.408C72.0923 15.488 72.6803 16.928 72.6803 18.728C72.6803 19.88 72.4403 20.924 71.9603 21.86C71.5043 22.796 70.8323 23.6 69.9443 24.272C69.0803 24.944 68.0363 25.46 66.8123 25.82C65.5883 26.18 64.2083 26.36 62.6723 26.36ZM84.0915 26.36C82.5315 26.36 81.2235 26.096 80.1675 25.568C79.1355 25.04 78.3675 24.272 77.8635 23.264C77.3595 22.232 77.1075 20.96 77.1075 19.448V11.78H75.2355C74.6595 11.78 74.2155 11.636 73.9035 11.348C73.5915 11.036 73.4355 10.616 73.4355 10.088C73.4355 9.536 73.5915 9.116 73.9035 8.828C74.2155 8.54 74.6595 8.396 75.2355 8.396H77.1075V5.12C77.1075 4.376 77.2995 3.812 77.6835 3.428C78.0915 3.044 78.6555 2.852 79.3755 2.852C80.0955 2.852 80.6475 3.044 81.0315 3.428C81.4155 3.812 81.6075 4.376 81.6075 5.12V8.396H85.4235C85.9995 8.396 86.4435 8.54 86.7555 8.828C87.0675 9.116 87.2235 9.536 87.2235 10.088C87.2235 10.616 87.0675 11.036 86.7555 11.348C86.4435 11.636 85.9995 11.78 85.4235 11.78H81.6075V19.196C81.6075 20.348 81.8595 21.212 82.3635 21.788C82.8675 22.364 83.6835 22.652 84.8115 22.652C85.2195 22.652 85.5795 22.616 85.8915 22.544C86.2035 22.472 86.4795 22.424 86.7195 22.4C87.0075 22.376 87.2475 22.472 87.4395 22.688C87.6315 22.88 87.7275 23.288 87.7275 23.912C87.7275 24.392 87.6435 24.824 87.4755 25.208C87.3315 25.568 87.0555 25.82 86.6475 25.964C86.3355 26.06 85.9275 26.144 85.4235 26.216C84.9195 26.312 84.4755 26.36 84.0915 26.36ZM97.6961 26.36C95.8721 26.36 94.2881 25.988 92.9441 25.244C91.6001 24.5 90.5561 23.444 89.8121 22.076C89.0681 20.684 88.6961 19.052 88.6961 17.18C88.6961 15.764 88.9001 14.504 89.3081 13.4C89.7401 12.272 90.3521 11.312 91.1441 10.52C91.9361 9.704 92.8841 9.092 93.9881 8.684C95.0921 8.252 96.3281 8.036 97.6961 8.036C99.5201 8.036 101.104 8.408 102.448 9.152C103.792 9.896 104.836 10.952 105.58 12.32C106.324 13.688 106.696 15.308 106.696 17.18C106.696 18.596 106.48 19.868 106.048 20.996C105.64 22.124 105.04 23.096 104.248 23.912C103.456 24.704 102.508 25.316 101.404 25.748C100.3 26.156 99.0641 26.36 97.6961 26.36ZM97.6961 22.94C98.5841 22.94 99.3641 22.724 100.036 22.292C100.708 21.86 101.224 21.224 101.584 20.384C101.968 19.52 102.16 18.452 102.16 17.18C102.16 15.26 101.752 13.832 100.936 12.896C100.12 11.936 99.0401 11.456 97.6961 11.456C96.8081 11.456 96.0281 11.672 95.3561 12.104C94.6841 12.512 94.1561 13.148 93.7721 14.012C93.4121 14.852 93.2321 15.908 93.2321 17.18C93.2321 19.076 93.6401 20.516 94.4561 21.5C95.2721 22.46 96.3521 22.94 97.6961 22.94ZM118.546 26.36C116.698 26.36 115.09 25.988 113.722 25.244C112.354 24.476 111.298 23.396 110.554 22.004C109.81 20.612 109.438 18.98 109.438 17.108C109.438 15.692 109.642 14.432 110.05 13.328C110.482 12.2 111.094 11.252 111.886 10.484C112.678 9.692 113.638 9.092 114.766 8.684C115.894 8.252 117.154 8.036 118.546 8.036C119.338 8.036 120.19 8.144 121.102 8.36C122.038 8.576 122.914 8.936 123.73 9.44C124.114 9.68 124.366 9.968 124.486 10.304C124.606 10.64 124.63 10.988 124.558 11.348C124.486 11.684 124.33 11.984 124.09 12.248C123.874 12.488 123.598 12.644 123.262 12.716C122.926 12.764 122.554 12.68 122.146 12.464C121.618 12.152 121.078 11.924 120.526 11.78C119.974 11.612 119.446 11.528 118.942 11.528C118.15 11.528 117.454 11.66 116.854 11.924C116.254 12.164 115.738 12.524 115.306 13.004C114.898 13.46 114.586 14.036 114.37 14.732C114.154 15.428 114.046 16.232 114.046 17.144C114.046 18.92 114.466 20.324 115.306 21.356C116.17 22.364 117.382 22.868 118.942 22.868C119.446 22.868 119.962 22.796 120.49 22.652C121.042 22.508 121.594 22.28 122.146 21.968C122.554 21.752 122.914 21.68 123.226 21.752C123.562 21.824 123.838 21.992 124.054 22.256C124.27 22.496 124.402 22.796 124.45 23.156C124.498 23.492 124.45 23.828 124.306 24.164C124.186 24.5 123.946 24.776 123.586 24.992C122.794 25.472 121.954 25.82 121.066 26.036C120.178 26.252 119.338 26.36 118.546 26.36ZM129.623 26.288C128.903 26.288 128.351 26.096 127.967 25.712C127.583 25.304 127.391 24.728 127.391 23.984V2.6C127.391 1.856 127.583 1.292 127.967 0.907999C128.351 0.523998 128.903 0.331998 129.623 0.331998C130.343 0.331998 130.895 0.523998 131.279 0.907999C131.687 1.292 131.891 1.856 131.891 2.6V15.884H131.963L137.903 9.62C138.383 9.14 138.803 8.768 139.163 8.504C139.523 8.24 140.015 8.108 140.639 8.108C141.263 8.108 141.731 8.276 142.043 8.612C142.379 8.924 142.547 9.308 142.547 9.764C142.547 10.22 142.331 10.676 141.899 11.132L135.635 17.756V15.884L142.511 23.3C142.943 23.756 143.135 24.224 143.087 24.704C143.063 25.16 142.871 25.544 142.511 25.856C142.151 26.144 141.695 26.288 141.143 26.288C140.471 26.288 139.931 26.156 139.523 25.892C139.139 25.628 138.707 25.232 138.227 24.704L131.963 18.152H131.891V23.984C131.891 25.52 131.135 26.288 129.623 26.288ZM155.548 26.288C154.804 26.288 154.228 26.084 153.82 25.676C153.436 25.244 153.244 24.656 153.244 23.912V4.472H146.224C145.6 4.472 145.108 4.304 144.748 3.968C144.412 3.608 144.244 3.128 144.244 2.528C144.244 1.904 144.412 1.436 144.748 1.124C145.108 0.787998 145.6 0.619998 146.224 0.619998H164.872C165.496 0.619998 165.976 0.787998 166.312 1.124C166.672 1.436 166.852 1.904 166.852 2.528C166.852 3.128 166.672 3.608 166.312 3.968C165.976 4.304 165.496 4.472 164.872 4.472H157.852V23.912C157.852 24.656 157.66 25.244 157.276 25.676C156.892 26.084 156.316 26.288 155.548 26.288ZM168.542 26.288C167.798 26.288 167.222 26.096 166.814 25.712C166.43 25.304 166.238 24.728 166.238 23.984V10.376C166.238 9.632 166.43 9.068 166.814 8.684C167.198 8.3 167.738 8.108 168.434 8.108C169.13 8.108 169.67 8.3 170.054 8.684C170.438 9.068 170.63 9.632 170.63 10.376V12.644H170.27C170.606 11.204 171.266 10.112 172.25 9.368C173.234 8.624 174.542 8.18 176.174 8.036C176.678 7.988 177.074 8.12 177.362 8.432C177.674 8.72 177.854 9.176 177.902 9.8C177.95 10.4 177.806 10.892 177.47 11.276C177.158 11.636 176.678 11.852 176.03 11.924L175.238 11.996C173.774 12.14 172.67 12.596 171.926 13.364C171.182 14.108 170.81 15.164 170.81 16.532V23.984C170.81 24.728 170.618 25.304 170.234 25.712C169.85 26.096 169.286 26.288 168.542 26.288ZM185.956 26.36C184.684 26.36 183.544 26.12 182.536 25.64C181.552 25.136 180.772 24.464 180.196 23.624C179.644 22.784 179.368 21.836 179.368 20.78C179.368 19.484 179.704 18.464 180.376 17.72C181.048 16.952 182.14 16.4 183.652 16.064C185.164 15.728 187.192 15.56 189.736 15.56H191.536V18.152H189.772C188.284 18.152 187.096 18.224 186.208 18.368C185.32 18.512 184.684 18.764 184.3 19.124C183.94 19.46 183.76 19.94 183.76 20.564C183.76 21.356 184.036 22.004 184.588 22.508C185.14 23.012 185.908 23.264 186.892 23.264C187.684 23.264 188.38 23.084 188.98 22.724C189.604 22.34 190.096 21.824 190.456 21.176C190.816 20.528 190.996 19.784 190.996 18.944V14.804C190.996 13.604 190.732 12.74 190.204 12.212C189.676 11.684 188.788 11.42 187.54 11.42C186.844 11.42 186.088 11.504 185.272 11.672C184.48 11.84 183.64 12.128 182.752 12.536C182.296 12.752 181.888 12.812 181.528 12.716C181.192 12.62 180.928 12.428 180.736 12.14C180.544 11.828 180.448 11.492 180.448 11.132C180.448 10.772 180.544 10.424 180.736 10.088C180.928 9.728 181.252 9.464 181.708 9.296C182.812 8.84 183.868 8.516 184.876 8.324C185.908 8.132 186.844 8.036 187.684 8.036C189.412 8.036 190.828 8.3 191.932 8.828C193.06 9.356 193.9 10.16 194.452 11.24C195.004 12.296 195.28 13.664 195.28 15.344V23.984C195.28 24.728 195.1 25.304 194.74 25.712C194.38 26.096 193.864 26.288 193.192 26.288C192.52 26.288 191.992 26.096 191.608 25.712C191.248 25.304 191.068 24.728 191.068 23.984V22.256H191.356C191.188 23.096 190.852 23.828 190.348 24.452C189.868 25.052 189.256 25.52 188.512 25.856C187.768 26.192 186.916 26.36 185.956 26.36ZM207.984 26.36C206.136 26.36 204.528 25.988 203.16 25.244C201.792 24.476 200.736 23.396 199.992 22.004C199.248 20.612 198.876 18.98 198.876 17.108C198.876 15.692 199.08 14.432 199.488 13.328C199.92 12.2 200.532 11.252 201.324 10.484C202.116 9.692 203.076 9.092 204.204 8.684C205.332 8.252 206.592 8.036 207.984 8.036C208.776 8.036 209.628 8.144 210.54 8.36C211.476 8.576 212.352 8.936 213.168 9.44C213.552 9.68 213.804 9.968 213.924 10.304C214.044 10.64 214.068 10.988 213.996 11.348C213.924 11.684 213.768 11.984 213.528 12.248C213.312 12.488 213.036 12.644 212.7 12.716C212.364 12.764 211.992 12.68 211.584 12.464C211.056 12.152 210.516 11.924 209.964 11.78C209.412 11.612 208.884 11.528 208.38 11.528C207.588 11.528 206.892 11.66 206.292 11.924C205.692 12.164 205.176 12.524 204.744 13.004C204.336 13.46 204.024 14.036 203.808 14.732C203.592 15.428 203.484 16.232 203.484 17.144C203.484 18.92 203.904 20.324 204.744 21.356C205.608 22.364 206.82 22.868 208.38 22.868C208.884 22.868 209.4 22.796 209.928 22.652C210.48 22.508 211.032 22.28 211.584 21.968C211.992 21.752 212.352 21.68 212.664 21.752C213 21.824 213.276 21.992 213.492 22.256C213.708 22.496 213.84 22.796 213.888 23.156C213.936 23.492 213.888 23.828 213.744 24.164C213.624 24.5 213.384 24.776 213.024 24.992C212.232 25.472 211.392 25.82 210.504 26.036C209.616 26.252 208.776 26.36 207.984 26.36ZM219.06 26.288C218.34 26.288 217.788 26.096 217.404 25.712C217.02 25.304 216.828 24.728 216.828 23.984V2.6C216.828 1.856 217.02 1.292 217.404 0.907999C217.788 0.523998 218.34 0.331998 219.06 0.331998C219.78 0.331998 220.332 0.523998 220.716 0.907999C221.124 1.292 221.328 1.856 221.328 2.6V15.884H221.4L227.34 9.62C227.82 9.14 228.24 8.768 228.6 8.504C228.96 8.24 229.452 8.108 230.076 8.108C230.7 8.108 231.168 8.276 231.48 8.612C231.816 8.924 231.984 9.308 231.984 9.764C231.984 10.22 231.768 10.676 231.336 11.132L225.072 17.756V15.884L231.948 23.3C232.38 23.756 232.572 24.224 232.524 24.704C232.5 25.16 232.308 25.544 231.948 25.856C231.588 26.144 231.132 26.288 230.58 26.288C229.908 26.288 229.368 26.156 228.96 25.892C228.576 25.628 228.144 25.232 227.664 24.704L221.4 18.152H221.328V23.984C221.328 25.52 220.572 26.288 219.06 26.288Z" fill="#153A5B"/>
</svg>
